{
    "asset": {
        "generator": "Noesis",
        "version": "2.0"
    },
    "scene": 0,
    "scenes": [
        {
            "nodes": [
                0,
                1
            ]
        }
    ],
    "nodes": [
        {
            "name": "mesh0_noesis_meshnode_0000",
            "translation": [
                0.0,
                0.0,
                0.0
            ],
            "rotation": [
                0.0,
                0.0,
                0.0,
                1.0
            ],
            "scale": [
                1.0,
                1.0,
                1.0
            ],
            "mesh": 0,
            "skin": 0
        },
        {
            "name": "Backpack1",
            "translation": [
                -0.1537950038909912109375,
                -0.67854297161102294921875,
                12.3114910125732421875
            ],
            "rotation": [
                -0.49999916553497314453125,
                0.50039875507354736328125,
                -0.500000774860382080078125,
                0.499601066112518310546875
            ],
            "scale": [
                0.99999988079071044921875,
                0.999999940395355224609375,
                0.999999940395355224609375
            ]
        }
    ],
    "meshes": [
        {
            "primitives": [
                {
                    "attributes": {
                        "POSITION": 1,
                        "NORMAL": 2,
                        "TANGENT": 3,
                        "TEXCOORD_0": 4,
                        "JOINTS_0": 5,
                        "WEIGHTS_0": 6
                    },
                    "indices": 0,
                    "material": 0,
                    "mode": 4
                }
            ],
            "name": "mesh0"
        }
    ],
    "skins": [
        {
            "inverseBindMatrices": 7,
            "joints": [
                1
            ]
        }
    ],
    "animations": [
        {
            "name": "idle",
            "channels": [
                {
                    "sampler": 0,
                    "target": {
                        "node": 1,
                        "path": "translation"
                    }
                },
                {
                    "sampler": 1,
                    "target": {
                        "node": 1,
                        "path": "rotation"
                    }
                }
            ],
            "samplers": [
                {
                    "input": 8,
                    "interpolation": "LINEAR",
                    "output": 9
                },
                {
                    "input": 10,
                    "interpolation": "LINEAR",
                    "output": 11
                }
            ]
        }
    ],
    "materials": [
        {
            "pbrMetallicRoughness": {
                "baseColorTexture": {
                    "index": 0
                },
                "metallicFactor": 0.0
            },
            "name": "hltex000"
        }
    ],
    "textures": [
        {
            "sampler": 0,
            "source": 0
        }
    ],
    "images": [
        {
            "uri": "aimpack-noesis0_tex00.png"
        }
    ],
    "samplers": [
        {
            "magFilter": 9729,
            "minFilter": 9729,
            "wrapS": 10497,
            "wrapT": 10497
        }
    ],
    "accessors": [
        {
            "bufferView": 0,
            "byteOffset": 0,
            "componentType": 5123,
            "count": 444,
            "max": [
                201
            ],
            "min": [
                0
            ],
            "type": "SCALAR"
        },
        {
            "bufferView": 1,
            "byteOffset": 0,
            "componentType": 5126,
            "count": 202,
            "max": [
                10.8774890899658203125,
                9.5351085662841796875,
                28.20604705810546875
            ],
            "min": [
                -11.3825511932373046875,
                -13.2633152008056640625,
                -0.0344409942626953125
            ],
            "type": "VEC3"
        },
        {
            "bufferView": 2,
            "byteOffset": 0,
            "componentType": 5126,
            "count": 202,
            "max": [
                0.964094817638397216796875,
                0.99683415889739990234375,
                0.962566792964935302734375
            ],
            "min": [
                -0.965203106403350830078125,
                -0.956920087337493896484375,
                -0.86878108978271484375
            ],
            "type": "VEC3"
        },
        {
            "bufferView": 3,
            "byteOffset": 0,
            "componentType": 5126,
            "count": 202,
            "max": [
                0.985253274440765380859375,
                0.98175609111785888671875,
                0.9991452693939208984375,
                1.0
            ],
            "min": [
                -0.999989032745361328125,
                -0.97890818119049072265625,
                -0.9078922271728515625,
                -1.0
            ],
            "type": "VEC4"
        },
        {
            "bufferView": 4,
            "byteOffset": 0,
            "componentType": 5126,
            "count": 202,
            "max": [
                0.96875,
                0.991935431957244873046875
            ],
            "min": [
                0.0,
                0.0
            ],
            "type": "VEC2"
        },
        {
            "bufferView": 5,
            "byteOffset": 0,
            "componentType": 5123,
            "count": 202,
            "max": [
                0,
                0,
                0,
                0
            ],
            "min": [
                0,
                0,
                0,
                0
            ],
            "type": "VEC4"
        },
        {
            "bufferView": 6,
            "byteOffset": 0,
            "componentType": 5126,
            "count": 202,
            "max": [
                1.0,
                0.0,
                0.0,
                0.0
            ],
            "min": [
                1.0,
                0.0,
                0.0,
                0.0
            ],
            "type": "VEC4"
        },
        {
            "bufferView": 7,
            "byteOffset": 0,
            "componentType": 5126,
            "count": 1,
            "max": [
                -0.0007992586470209062099456787109375,
                -0.000796168926171958446502685546875,
                0.9999992847442626953125,
                0.0,
                -0.999999582767486572265625,
                0.000000298020694344813819043338298797607421875,
                -0.000799327972345054149627685546875,
                0.0,
                0.000000407607103625196032226085662841796875,
                -0.99999964237213134765625,
                -0.0007960996008478105068206787109375,
                0.0,
                -0.678670585155487060546875,
                12.31136417388916015625,
                0.16305370628833770751953125,
                1.0
            ],
            "min": [
                -0.0007992586470209062099456787109375,
                -0.000796168926171958446502685546875,
                0.9999992847442626953125,
                0.0,
                -0.999999582767486572265625,
                0.000000298020694344813819043338298797607421875,
                -0.000799327972345054149627685546875,
                0.0,
                0.000000407607103625196032226085662841796875,
                -0.99999964237213134765625,
                -0.0007960996008478105068206787109375,
                0.0,
                -0.678670585155487060546875,
                12.31136417388916015625,
                0.16305370628833770751953125,
                1.0
            ],
            "type": "MAT4"
        },
        {
            "bufferView": 8,
            "byteOffset": 0,
            "componentType": 5126,
            "count": 1,
            "max": [
                0.0
            ],
            "min": [
                0.0
            ],
            "type": "SCALAR"
        },
        {
            "bufferView": 8,
            "byteOffset": 4,
            "componentType": 5126,
            "count": 1,
            "max": [
                0.67826163768768310546875,
                -0.15508949756622314453125,
                12.3114910125732421875
            ],
            "min": [
                0.67826163768768310546875,
                -0.15508949756622314453125,
                12.3114910125732421875
            ],
            "type": "VEC3"
        },
        {
            "bufferView": 8,
            "byteOffset": 16,
            "componentType": 5126,
            "count": 1,
            "max": [
                0.0
            ],
            "min": [
                0.0
            ],
            "type": "SCALAR"
        },
        {
            "bufferView": 8,
            "byteOffset": 20,
            "componentType": 5126,
            "count": 1,
            "max": [
                -0.7073881626129150390625,
                0.00028258070233277976512908935546875,
                -0.0002826309646479785442352294921875,
                0.706825196743011474609375
            ],
            "min": [
                -0.7073881626129150390625,
                0.00028258070233277976512908935546875,
                -0.0002826309646479785442352294921875,
                0.706825196743011474609375
            ],
            "type": "VEC4"
        }
    ],
    "bufferViews": [
        {
            "buffer": 0,
            "byteOffset": 0,
            "byteLength": 888,
            "target": 34963
        },
        {
            "buffer": 0,
            "byteOffset": 888,
            "byteLength": 2424,
            "byteStride": 12,
            "target": 34962
        },
        {
            "buffer": 0,
            "byteOffset": 3312,
            "byteLength": 2424,
            "byteStride": 12,
            "target": 34962
        },
        {
            "buffer": 0,
            "byteOffset": 5736,
            "byteLength": 3232,
            "byteStride": 16,
            "target": 34962
        },
        {
            "buffer": 0,
            "byteOffset": 8968,
            "byteLength": 1616,
            "byteStride": 8,
            "target": 34962
        },
        {
            "buffer": 0,
            "byteOffset": 10584,
            "byteLength": 1616,
            "byteStride": 8,
            "target": 34962
        },
        {
            "buffer": 0,
            "byteOffset": 12200,
            "byteLength": 3232,
            "byteStride": 16,
            "target": 34962
        },
        {
            "buffer": 0,
            "byteOffset": 15432,
            "byteLength": 64
        },
        {
            "buffer": 0,
            "byteOffset": 15496,
            "byteLength": 36
        }
    ],
    "buffers": [
        {
            "byteLength": 15532,
            "uri": "aimpack-noesis0.bin"
        }
    ]
}
